<svg width="58" height="58" viewBox="0 0 58 58" fill="none" xmlns="http://www.w3.org/2000/svg">
<path d="M28.9997 0.500018C24.6179 0.495037 20.2945 1.50517 16.3685 3.45121V8.86524H24.1656V16.613H16.5845V29.007C16.5836 31.4588 17.3095 33.8558 18.6707 35.895C20.0318 37.9342 21.9669 39.5241 24.2314 40.4638C26.4959 41.4034 28.9882 41.6506 31.3932 41.174C33.7982 40.6975 36.0079 39.5186 37.743 37.7864C39.4781 36.0543 40.6607 33.8466 41.1414 31.4424C41.622 29.0382 41.3791 26.5455 40.4433 24.2794C39.5076 22.0133 37.9209 20.0754 35.884 18.7109C33.8471 17.3463 31.4514 16.6162 28.9997 16.613H27.976V8.84411H28.9997C32.981 8.84736 36.872 10.0307 40.1811 12.2447C43.4901 14.4586 46.0685 17.6038 47.5906 21.2827C49.1127 24.9616 49.5101 29.0091 48.7326 32.9138C47.9551 36.8185 46.0375 40.4051 43.2223 43.2203C40.4071 46.0355 36.8205 47.9531 32.9158 48.7306C29.0111 49.5081 24.9636 49.1107 21.2847 47.5886C17.6058 46.0665 14.4607 43.4881 12.2467 40.179C10.0328 36.87 8.8494 32.979 8.84615 28.9977V10.9196V8.84881C4.18412 13.5115 1.283 19.6464 0.637114 26.2082C-0.00877696 32.77 1.64052 39.3528 5.30399 44.835C8.96745 50.3171 14.4184 54.3595 20.7281 56.2732C27.0379 58.1869 33.8159 57.8536 39.9075 55.3301C45.999 52.8067 51.0272 48.2491 54.1351 42.434C57.2431 36.6189 58.2387 29.9061 56.9522 23.4392C55.6657 16.9724 52.1767 11.1517 47.0798 6.96889C41.9828 2.78607 35.5932 0.499943 28.9997 0.500018Z" fill="url(#paint0_linear_71_532)"/>
<defs>
<linearGradient id="paint0_linear_71_532" x1="43" y1="-7.5" x2="15" y2="53.5" gradientUnits="userSpaceOnUse">
<stop stop-color="#B0A2DC"/>
<stop offset="0.470418" stop-color="#40D6F7"/>
<stop offset="1" stop-color="#E73493"/>
</linearGradient>
</defs>
</svg>
